<mxfile host="app.diagrams.net" modified="2023-10-31T10:31:57.667Z" agent="Mozilla/5.0 (Windows NT 10.0; Win64; x64; rv:109.0) Gecko/20100101 Firefox/115.0" etag="64zLz5dksYhLkGKoxEu0" version="22.0.8" type="github">
  <diagram id="logMiOCvHXAl9x27JXvN" name="Page-1">
    <mxGraphModel dx="1562" dy="826" grid="1" gridSize="10" guides="1" tooltips="1" connect="1" arrows="1" fold="1" page="1" pageScale="1" pageWidth="1169" pageHeight="827" math="0" shadow="0">
      <root>
        <mxCell id="0" />
        <mxCell id="1" parent="0" />
        <mxCell id="R9i-BLZebL0esbmVvitq-9" value="DELAY PAIR" style="group;fontStyle=1;labelPosition=left;verticalLabelPosition=top;align=right;verticalAlign=bottom;" parent="1" connectable="0" vertex="1">
          <mxGeometry x="350" y="190" width="150" height="70" as="geometry" />
        </mxCell>
        <mxCell id="R9i-BLZebL0esbmVvitq-7" value="" style="fontColor=#0066CC;verticalAlign=top;verticalLabelPosition=bottom;labelPosition=center;align=center;html=1;outlineConnect=0;fillColor=#CCCCCC;strokeColor=#6881B3;gradientColor=none;gradientDirection=north;strokeWidth=2;shape=mxgraph.networks.server_storage;" parent="R9i-BLZebL0esbmVvitq-9" vertex="1">
          <mxGeometry width="70" height="70" as="geometry" />
        </mxCell>
        <mxCell id="R9i-BLZebL0esbmVvitq-8" value="" style="fontColor=#0066CC;verticalAlign=top;verticalLabelPosition=bottom;labelPosition=center;align=center;html=1;outlineConnect=0;fillColor=#CCCCCC;strokeColor=#6881B3;gradientColor=none;gradientDirection=north;strokeWidth=2;shape=mxgraph.networks.server_storage;" parent="R9i-BLZebL0esbmVvitq-9" vertex="1">
          <mxGeometry x="80" width="70" height="70" as="geometry" />
        </mxCell>
        <mxCell id="R9i-BLZebL0esbmVvitq-10" value="REALTIME PAIR" style="group;fontStyle=1;labelPosition=right;verticalLabelPosition=top;align=left;verticalAlign=bottom;" parent="1" connectable="0" vertex="1">
          <mxGeometry x="538" y="190" width="150" height="70" as="geometry" />
        </mxCell>
        <mxCell id="R9i-BLZebL0esbmVvitq-5" value="" style="fontColor=#0066CC;verticalAlign=top;verticalLabelPosition=bottom;labelPosition=center;align=center;html=1;outlineConnect=0;fillColor=#CCCCCC;strokeColor=#6881B3;gradientColor=none;gradientDirection=north;strokeWidth=2;shape=mxgraph.networks.server_storage;" parent="R9i-BLZebL0esbmVvitq-10" vertex="1">
          <mxGeometry width="70" height="70" as="geometry" />
        </mxCell>
        <mxCell id="R9i-BLZebL0esbmVvitq-6" value="" style="fontColor=#0066CC;verticalAlign=top;verticalLabelPosition=bottom;labelPosition=center;align=center;html=1;outlineConnect=0;fillColor=#CCCCCC;strokeColor=#6881B3;gradientColor=none;gradientDirection=north;strokeWidth=2;shape=mxgraph.networks.server_storage;" parent="R9i-BLZebL0esbmVvitq-10" vertex="1">
          <mxGeometry x="80" width="70" height="70" as="geometry" />
        </mxCell>
        <mxCell id="R9i-BLZebL0esbmVvitq-14" value="Feed handler" style="html=1;shadow=0;dashed=0;align=center;verticalAlign=middle;shape=mxgraph.arrows2.arrow;dy=0.67;dx=20;notch=0;rotation=90;textDirection=ltr;" parent="1" vertex="1">
          <mxGeometry x="370" y="108" width="97" height="61" as="geometry" />
        </mxCell>
        <mxCell id="R9i-BLZebL0esbmVvitq-12" value="Feed handler" style="html=1;shadow=0;dashed=0;align=center;verticalAlign=middle;shape=mxgraph.arrows2.arrow;dy=0.67;dx=20;notch=0;rotation=90;textDirection=ltr;" parent="1" vertex="1">
          <mxGeometry x="597" y="108" width="97" height="61" as="geometry" />
        </mxCell>
        <mxCell id="R9i-BLZebL0esbmVvitq-13" value="Refinitiv" style="html=1;shadow=0;dashed=0;align=center;verticalAlign=middle;shape=mxgraph.arrows2.arrow;dy=0.67;dx=20;notch=0;rotation=90;textDirection=ltr;" parent="1" vertex="1">
          <mxGeometry x="520" y="108" width="97" height="61" as="geometry" />
        </mxCell>
        <mxCell id="R9i-BLZebL0esbmVvitq-23" value="Tibco RendezVous" style="rounded=0;whiteSpace=wrap;html=1;fontStyle=1" parent="1" vertex="1">
          <mxGeometry x="250" y="310" width="490" height="30" as="geometry" />
        </mxCell>
        <mxCell id="R9i-BLZebL0esbmVvitq-24" style="edgeStyle=orthogonalEdgeStyle;rounded=0;orthogonalLoop=1;jettySize=auto;html=1;entryX=0.304;entryY=0;entryDx=0;entryDy=0;entryPerimeter=0;startArrow=classic;startFill=1;" parent="1" source="R9i-BLZebL0esbmVvitq-7" target="R9i-BLZebL0esbmVvitq-23" edge="1">
          <mxGeometry relative="1" as="geometry" />
        </mxCell>
        <mxCell id="R9i-BLZebL0esbmVvitq-25" style="edgeStyle=orthogonalEdgeStyle;rounded=0;orthogonalLoop=1;jettySize=auto;html=1;entryX=0.427;entryY=-0.067;entryDx=0;entryDy=0;entryPerimeter=0;startArrow=classic;startFill=1;" parent="1" source="R9i-BLZebL0esbmVvitq-8" target="R9i-BLZebL0esbmVvitq-23" edge="1">
          <mxGeometry relative="1" as="geometry" />
        </mxCell>
        <mxCell id="R9i-BLZebL0esbmVvitq-26" style="edgeStyle=orthogonalEdgeStyle;rounded=0;orthogonalLoop=1;jettySize=auto;html=1;entryX=0.593;entryY=0.033;entryDx=0;entryDy=0;entryPerimeter=0;startArrow=classic;startFill=1;" parent="1" source="R9i-BLZebL0esbmVvitq-5" target="R9i-BLZebL0esbmVvitq-23" edge="1">
          <mxGeometry relative="1" as="geometry" />
        </mxCell>
        <mxCell id="R9i-BLZebL0esbmVvitq-27" style="edgeStyle=orthogonalEdgeStyle;rounded=0;orthogonalLoop=1;jettySize=auto;html=1;entryX=0.716;entryY=0.033;entryDx=0;entryDy=0;entryPerimeter=0;startArrow=classic;startFill=1;" parent="1" source="R9i-BLZebL0esbmVvitq-6" target="R9i-BLZebL0esbmVvitq-23" edge="1">
          <mxGeometry relative="1" as="geometry" />
        </mxCell>
        <mxCell id="R9i-BLZebL0esbmVvitq-28" value="MSP BACKEND" style="group;fontStyle=1;labelPosition=center;verticalLabelPosition=bottom;align=center;verticalAlign=top;" parent="1" connectable="0" vertex="1">
          <mxGeometry x="220" y="420" width="80" height="136" as="geometry" />
        </mxCell>
        <mxCell id="R9i-BLZebL0esbmVvitq-19" value="" style="image;html=1;image=img/lib/clip_art/computers/Server_128x128.png" parent="R9i-BLZebL0esbmVvitq-28" vertex="1">
          <mxGeometry width="80" height="80" as="geometry" />
        </mxCell>
        <mxCell id="R9i-BLZebL0esbmVvitq-20" value="" style="image;html=1;image=img/lib/clip_art/computers/Server_128x128.png" parent="R9i-BLZebL0esbmVvitq-28" vertex="1">
          <mxGeometry y="56" width="80" height="80" as="geometry" />
        </mxCell>
        <mxCell id="R9i-BLZebL0esbmVvitq-29" style="edgeStyle=orthogonalEdgeStyle;rounded=0;orthogonalLoop=1;jettySize=auto;html=1;entryX=0.318;entryY=1.067;entryDx=0;entryDy=0;entryPerimeter=0;startArrow=classic;startFill=1;" parent="1" source="R9i-BLZebL0esbmVvitq-19" target="R9i-BLZebL0esbmVvitq-23" edge="1">
          <mxGeometry relative="1" as="geometry" />
        </mxCell>
        <mxCell id="R9i-BLZebL0esbmVvitq-30" value="MSP POWERDESK" style="group;fontStyle=1;labelPosition=center;verticalLabelPosition=bottom;align=center;verticalAlign=top;fillColor=none;strokeColor=#d79b00;" parent="1" connectable="0" vertex="1">
          <mxGeometry x="377" y="420" width="80" height="136" as="geometry" />
        </mxCell>
        <mxCell id="R9i-BLZebL0esbmVvitq-31" value="" style="image;html=1;image=img/lib/clip_art/computers/Server_128x128.png" parent="R9i-BLZebL0esbmVvitq-30" vertex="1">
          <mxGeometry width="80" height="80" as="geometry" />
        </mxCell>
        <mxCell id="R9i-BLZebL0esbmVvitq-32" value="" style="image;html=1;image=img/lib/clip_art/computers/Server_128x128.png" parent="R9i-BLZebL0esbmVvitq-30" vertex="1">
          <mxGeometry y="56" width="80" height="80" as="geometry" />
        </mxCell>
        <mxCell id="R9i-BLZebL0esbmVvitq-33" value="MSP TRADEPUSH" style="group;fontStyle=1;labelPosition=center;verticalLabelPosition=bottom;align=center;verticalAlign=top;fillColor=none;strokeColor=#d79b00;" parent="1" connectable="0" vertex="1">
          <mxGeometry x="533" y="420" width="80" height="136" as="geometry" />
        </mxCell>
        <mxCell id="R9i-BLZebL0esbmVvitq-34" value="" style="image;html=1;image=img/lib/clip_art/computers/Server_128x128.png" parent="R9i-BLZebL0esbmVvitq-33" vertex="1">
          <mxGeometry width="80" height="80" as="geometry" />
        </mxCell>
        <mxCell id="R9i-BLZebL0esbmVvitq-35" value="" style="image;html=1;image=img/lib/clip_art/computers/Server_128x128.png" parent="R9i-BLZebL0esbmVvitq-33" vertex="1">
          <mxGeometry y="56" width="80" height="80" as="geometry" />
        </mxCell>
        <mxCell id="R9i-BLZebL0esbmVvitq-36" value="MSP MOBILE" style="group;fontStyle=1;labelPosition=center;verticalLabelPosition=bottom;align=center;verticalAlign=top;fillColor=none;strokeColor=#d79b00;" parent="1" connectable="0" vertex="1">
          <mxGeometry x="690" y="420" width="80" height="136" as="geometry" />
        </mxCell>
        <mxCell id="R9i-BLZebL0esbmVvitq-37" value="" style="image;html=1;image=img/lib/clip_art/computers/Server_128x128.png" parent="R9i-BLZebL0esbmVvitq-36" vertex="1">
          <mxGeometry width="80" height="80" as="geometry" />
        </mxCell>
        <mxCell id="R9i-BLZebL0esbmVvitq-38" value="" style="image;html=1;image=img/lib/clip_art/computers/Server_128x128.png" parent="R9i-BLZebL0esbmVvitq-36" vertex="1">
          <mxGeometry y="56" width="80" height="80" as="geometry" />
        </mxCell>
        <mxCell id="R9i-BLZebL0esbmVvitq-39" value="" style="group" parent="1" connectable="0" vertex="1">
          <mxGeometry x="337" y="10" width="351" height="80" as="geometry" />
        </mxCell>
        <mxCell id="R9i-BLZebL0esbmVvitq-16" value="" style="shape=image;html=1;verticalAlign=top;verticalLabelPosition=bottom;labelBackgroundColor=#ffffff;imageAspect=0;aspect=fixed;image=https://cdn2.iconfinder.com/data/icons/freecns-cumulus/16/519652-156_Library-128.png" parent="R9i-BLZebL0esbmVvitq-39" vertex="1">
          <mxGeometry x="271" width="80" height="80" as="geometry" />
        </mxCell>
        <mxCell id="R9i-BLZebL0esbmVvitq-1" value="" style="shape=image;html=1;verticalAlign=top;verticalLabelPosition=bottom;labelBackgroundColor=#ffffff;imageAspect=0;aspect=fixed;image=https://cdn2.iconfinder.com/data/icons/freecns-cumulus/16/519652-156_Library-128.png" parent="R9i-BLZebL0esbmVvitq-39" vertex="1">
          <mxGeometry width="80" height="80" as="geometry" />
        </mxCell>
        <mxCell id="R9i-BLZebL0esbmVvitq-2" value="" style="shape=image;html=1;verticalAlign=top;verticalLabelPosition=bottom;labelBackgroundColor=#ffffff;imageAspect=0;aspect=fixed;image=https://cdn2.iconfinder.com/data/icons/freecns-cumulus/16/519652-156_Library-128.png" parent="R9i-BLZebL0esbmVvitq-39" vertex="1">
          <mxGeometry x="90" width="80" height="80" as="geometry" />
        </mxCell>
        <mxCell id="R9i-BLZebL0esbmVvitq-3" value="" style="shape=image;html=1;verticalAlign=top;verticalLabelPosition=bottom;labelBackgroundColor=#ffffff;imageAspect=0;aspect=fixed;image=https://cdn2.iconfinder.com/data/icons/freecns-cumulus/16/519652-156_Library-128.png" parent="R9i-BLZebL0esbmVvitq-39" vertex="1">
          <mxGeometry x="181" width="80" height="80" as="geometry" />
        </mxCell>
        <mxCell id="R9i-BLZebL0esbmVvitq-41" style="edgeStyle=orthogonalEdgeStyle;rounded=0;orthogonalLoop=1;jettySize=auto;html=1;entryX=0.415;entryY=1.067;entryDx=0;entryDy=0;entryPerimeter=0;startArrow=classic;startFill=1;" parent="1" source="R9i-BLZebL0esbmVvitq-31" target="R9i-BLZebL0esbmVvitq-23" edge="1">
          <mxGeometry relative="1" as="geometry" />
        </mxCell>
        <mxCell id="R9i-BLZebL0esbmVvitq-42" style="edgeStyle=orthogonalEdgeStyle;rounded=0;orthogonalLoop=1;jettySize=auto;html=1;entryX=0.545;entryY=1.033;entryDx=0;entryDy=0;entryPerimeter=0;startArrow=classic;startFill=1;" parent="1" source="R9i-BLZebL0esbmVvitq-34" target="R9i-BLZebL0esbmVvitq-23" edge="1">
          <mxGeometry relative="1" as="geometry" />
        </mxCell>
        <mxCell id="R9i-BLZebL0esbmVvitq-43" style="edgeStyle=orthogonalEdgeStyle;rounded=0;orthogonalLoop=1;jettySize=auto;html=1;entryX=0.727;entryY=1;entryDx=0;entryDy=0;entryPerimeter=0;startArrow=classic;startFill=1;" parent="1" source="R9i-BLZebL0esbmVvitq-37" target="R9i-BLZebL0esbmVvitq-23" edge="1">
          <mxGeometry relative="1" as="geometry" />
        </mxCell>
        <mxCell id="UA6H3cOFtZVkUl7UT2nd-2" value="&lt;b&gt;WEBSOCKET&lt;/b&gt;" style="edgeStyle=orthogonalEdgeStyle;rounded=0;orthogonalLoop=1;jettySize=auto;html=1;" parent="1" source="UA6H3cOFtZVkUl7UT2nd-1" target="R9i-BLZebL0esbmVvitq-37" edge="1">
          <mxGeometry relative="1" as="geometry" />
        </mxCell>
        <mxCell id="UA6H3cOFtZVkUl7UT2nd-1" value="" style="sketch=0;outlineConnect=0;fontColor=#232F3E;gradientColor=none;fillColor=#232F3D;strokeColor=none;dashed=0;verticalLabelPosition=bottom;verticalAlign=top;align=center;html=1;fontSize=12;fontStyle=0;aspect=fixed;pointerEvents=1;shape=mxgraph.aws4.mobile_client;" parent="1" vertex="1">
          <mxGeometry x="920" y="460" width="41" height="78" as="geometry" />
        </mxCell>
        <mxCell id="UA6H3cOFtZVkUl7UT2nd-3" value="" style="sketch=0;outlineConnect=0;fontColor=#232F3E;gradientColor=none;fillColor=#232F3D;strokeColor=none;dashed=0;verticalLabelPosition=bottom;verticalAlign=top;align=center;html=1;fontSize=12;fontStyle=0;aspect=fixed;pointerEvents=1;shape=mxgraph.aws4.mobile_client;" parent="1" vertex="1">
          <mxGeometry x="930" y="470" width="41" height="78" as="geometry" />
        </mxCell>
        <mxCell id="UA6H3cOFtZVkUl7UT2nd-4" value="" style="sketch=0;outlineConnect=0;fontColor=#232F3E;gradientColor=none;fillColor=#232F3D;strokeColor=none;dashed=0;verticalLabelPosition=bottom;verticalAlign=top;align=center;html=1;fontSize=12;fontStyle=0;aspect=fixed;pointerEvents=1;shape=mxgraph.aws4.mobile_client;" parent="1" vertex="1">
          <mxGeometry x="940" y="480" width="41" height="78" as="geometry" />
        </mxCell>
        <mxCell id="UA6H3cOFtZVkUl7UT2nd-6" value="https / custom" style="edgeStyle=orthogonalEdgeStyle;rounded=0;orthogonalLoop=1;jettySize=auto;html=1;" parent="1" source="UA6H3cOFtZVkUl7UT2nd-5" target="R9i-BLZebL0esbmVvitq-19" edge="1">
          <mxGeometry relative="1" as="geometry" />
        </mxCell>
        <mxCell id="UA6H3cOFtZVkUl7UT2nd-5" value="" style="aspect=fixed;perimeter=ellipsePerimeter;html=1;align=center;shadow=0;dashed=0;spacingTop=3;image;image=img/lib/active_directory/web_server.svg;" parent="1" vertex="1">
          <mxGeometry x="60" y="454" width="72" height="90" as="geometry" />
        </mxCell>
        <mxCell id="UA6H3cOFtZVkUl7UT2nd-7" value="" style="aspect=fixed;perimeter=ellipsePerimeter;html=1;align=center;shadow=0;dashed=0;spacingTop=3;image;image=img/lib/active_directory/web_server.svg;" parent="1" vertex="1">
          <mxGeometry x="70" y="464" width="72" height="90" as="geometry" />
        </mxCell>
        <mxCell id="UA6H3cOFtZVkUl7UT2nd-8" value="" style="aspect=fixed;perimeter=ellipsePerimeter;html=1;align=center;shadow=0;dashed=0;spacingTop=3;image;image=img/lib/active_directory/web_server.svg;" parent="1" vertex="1">
          <mxGeometry x="80" y="474" width="72" height="90" as="geometry" />
        </mxCell>
        <mxCell id="UA6H3cOFtZVkUl7UT2nd-11" value="Websocket" style="edgeStyle=orthogonalEdgeStyle;rounded=0;orthogonalLoop=1;jettySize=auto;html=1;" parent="1" source="UA6H3cOFtZVkUl7UT2nd-9" edge="1">
          <mxGeometry relative="1" as="geometry">
            <mxPoint x="417" y="560" as="targetPoint" />
          </mxGeometry>
        </mxCell>
        <mxCell id="UA6H3cOFtZVkUl7UT2nd-9" value="" style="dashed=0;outlineConnect=0;html=1;align=center;labelPosition=center;verticalLabelPosition=bottom;verticalAlign=top;shape=mxgraph.weblogos.java" parent="1" vertex="1">
          <mxGeometry x="399.8" y="650" width="34.4" height="65" as="geometry" />
        </mxCell>
        <mxCell id="UA6H3cOFtZVkUl7UT2nd-12" value="" style="dashed=0;outlineConnect=0;html=1;align=center;labelPosition=center;verticalLabelPosition=bottom;verticalAlign=top;shape=mxgraph.weblogos.java" parent="1" vertex="1">
          <mxGeometry x="409.8" y="660" width="34.4" height="65" as="geometry" />
        </mxCell>
        <mxCell id="UA6H3cOFtZVkUl7UT2nd-13" value="" style="dashed=0;outlineConnect=0;html=1;align=center;labelPosition=center;verticalLabelPosition=bottom;verticalAlign=top;shape=mxgraph.weblogos.java" parent="1" vertex="1">
          <mxGeometry x="419.8" y="670" width="34.4" height="65" as="geometry" />
        </mxCell>
        <mxCell id="UA6H3cOFtZVkUl7UT2nd-16" value="" style="group" parent="1" connectable="0" vertex="1">
          <mxGeometry x="532.5" y="645" width="106.39999999999998" height="90" as="geometry" />
        </mxCell>
        <mxCell id="UA6H3cOFtZVkUl7UT2nd-14" value="" style="aspect=fixed;perimeter=ellipsePerimeter;html=1;align=center;shadow=0;dashed=0;spacingTop=3;image;image=img/lib/active_directory/web_server.svg;" parent="UA6H3cOFtZVkUl7UT2nd-16" vertex="1">
          <mxGeometry width="72" height="90" as="geometry" />
        </mxCell>
        <mxCell id="UA6H3cOFtZVkUl7UT2nd-15" value="" style="dashed=0;outlineConnect=0;html=1;align=center;labelPosition=center;verticalLabelPosition=bottom;verticalAlign=top;shape=mxgraph.weblogos.java" parent="UA6H3cOFtZVkUl7UT2nd-16" vertex="1">
          <mxGeometry x="72" y="25" width="34.4" height="65" as="geometry" />
        </mxCell>
        <mxCell id="UA6H3cOFtZVkUl7UT2nd-17" value="Https" style="edgeStyle=orthogonalEdgeStyle;rounded=0;orthogonalLoop=1;jettySize=auto;html=1;" parent="1" source="UA6H3cOFtZVkUl7UT2nd-14" edge="1">
          <mxGeometry relative="1" as="geometry">
            <mxPoint x="569" y="570" as="targetPoint" />
          </mxGeometry>
        </mxCell>
      </root>
    </mxGraphModel>
  </diagram>
</mxfile>
